# xmcd
# Track frame offsets:
# 182
# 9515
# 21007
# 33527
# 43475
# 55717
# 66060
# 78052
# 94010
# 143795
# 159282
# 184832
# 198090
# 211895
#
# Disc length: 3063 seconds
# Revision: 0
# Processed by: cddbd v1.4PL0 Copyright (c) Steve Scherf et al.
# Submitted via: VisiTrax 2.9.3.171 - For more info visit www.synapsa.com
#
DISCID=ae0bf50e
DTITLE=Creedence Clearwater Revival - Creedence Clearwater Revival Vol. 2
DYEAR=1994
DGENRE=Country
TTITLE0=Travelin' Band
TTITLE1=Lookin' Out My Back Door
TTITLE2=Up Around The Bend
TTITLE3=Hello Mary Lou
TTITLE4=Hey Tonight
TTITLE5=Who'll Stop The Rain
TTITLE6=Have You Ever Seen The Rain?
TTITLE7=Long As I Can See The Light
TTITLE8=I Heard It Through The Grapevine
TTITLE9=Lookin' For A Reason
TTITLE10=Born To Move
TTITLE11=Sweet Hitch-Hiker
TTITLE12=Run Through The Jungle
TTITLE13=Someday Never Comes
EXTD=Doug Clifford - Drums\nStu Cook - Bass\nJohn Fogerty - Lead Guitar and V
EXTD=ocals\nTom Fogerty - Rhythm Guitar
EXTT0=
EXTT1=
EXTT2=
EXTT3=
EXTT4=
EXTT5=
EXTT6=
EXTT7=
EXTT8=
EXTT9=
EXTT10=
EXTT11=
EXTT12=
EXTT13=
PLAYORDER=
